<?xml version="1.0" encoding="UTF-8" standalone="no"?>
<!DOCTYPE svg PUBLIC "-//W3C//DTD SVG 1.1//EN"
 "http://www.w3.org/Graphics/SVG/1.1/DTD/svg11.dtd">
<!-- Generated by graphviz version 2.49.1 (20210923.0004)
 -->
<!-- Pages: 1 -->
<svg width="937pt" height="476pt"
 viewBox="0.00 0.00 937.03 476.00" xmlns="http://www.w3.org/2000/svg" xmlns:xlink="http://www.w3.org/1999/xlink">
<g id="graph0" class="graph" transform="scale(1 1) rotate(0) translate(4 472)">
<polygon fill="white" stroke="transparent" points="-4,4 -4,-472 933.03,-472 933.03,4 -4,4"/>
<!-- [root] aws_cognito_user_pool.pool (expand) -->
<g id="node1" class="node">
<title>[root] aws_cognito_user_pool.pool (expand)</title>
<polygon fill="none" stroke="black" points="427.03,-180 249.03,-180 249.03,-144 427.03,-144 427.03,-180"/>
<text text-anchor="middle" x="338.03" y="-158.3" font-family="Times,serif" font-size="14.00">aws_cognito_user_pool.pool</text>
</g>
<!-- [root] provider[&quot;registry.terraform.io/hashicorp/aws&quot;] -->
<g id="node9" class="node">
<title>[root] provider[&quot;registry.terraform.io/hashicorp/aws&quot;]</title>
<polygon fill="none" stroke="black" points="566.03,-108 307.96,-90 566.03,-72 824.09,-90 566.03,-108"/>
<text text-anchor="middle" x="566.03" y="-86.3" font-family="Times,serif" font-size="14.00">provider[&quot;registry.terraform.io/hashicorp/aws&quot;]</text>
</g>
<!-- [root] aws_cognito_user_pool.pool (expand)&#45;&gt;[root] provider[&quot;registry.terraform.io/hashicorp/aws&quot;] -->
<g id="edge1" class="edge">
<title>[root] aws_cognito_user_pool.pool (expand)&#45;&gt;[root] provider[&quot;registry.terraform.io/hashicorp/aws&quot;]</title>
<path fill="none" stroke="black" d="M393.51,-143.97C429.17,-133.02 475.32,-118.85 510.91,-107.92"/>
<polygon fill="black" stroke="black" points="512.12,-111.21 520.65,-104.93 510.07,-104.52 512.12,-111.21"/>
</g>
<!-- [root] var.project_name -->
<g id="node12" class="node">
<title>[root] var.project_name</title>
<polygon fill="none" stroke="black" points="283.53,-108 176.53,-108 176.53,-72 289.53,-72 289.53,-102 283.53,-108"/>
<polyline fill="none" stroke="black" points="283.53,-108 283.53,-102 "/>
<polyline fill="none" stroke="black" points="289.53,-102 283.53,-102 "/>
<text text-anchor="middle" x="233.03" y="-86.3" font-family="Times,serif" font-size="14.00">var.project_name</text>
</g>
<!-- [root] aws_cognito_user_pool.pool (expand)&#45;&gt;[root] var.project_name -->
<g id="edge2" class="edge">
<title>[root] aws_cognito_user_pool.pool (expand)&#45;&gt;[root] var.project_name</title>
<path fill="none" stroke="black" d="M312.34,-143.88C298.74,-134.81 281.86,-123.55 267.17,-113.76"/>
<polygon fill="black" stroke="black" points="269.07,-110.82 258.81,-108.19 265.19,-116.65 269.07,-110.82"/>
</g>
<!-- [root] aws_cognito_user_pool_client.client (expand) -->
<g id="node2" class="node">
<title>[root] aws_cognito_user_pool_client.client (expand)</title>
<polygon fill="none" stroke="black" points="725.03,-252 503.03,-252 503.03,-216 725.03,-216 725.03,-252"/>
<text text-anchor="middle" x="614.03" y="-230.3" font-family="Times,serif" font-size="14.00">aws_cognito_user_pool_client.client</text>
</g>
<!-- [root] aws_cognito_user_pool_client.client (expand)&#45;&gt;[root] aws_cognito_user_pool.pool (expand) -->
<g id="edge3" class="edge">
<title>[root] aws_cognito_user_pool_client.client (expand)&#45;&gt;[root] aws_cognito_user_pool.pool (expand)</title>
<path fill="none" stroke="black" d="M546.86,-215.97C507.13,-205.89 456.64,-193.08 415.26,-182.59"/>
<polygon fill="black" stroke="black" points="416.05,-179.18 405.49,-180.11 414.33,-185.96 416.05,-179.18"/>
</g>
<!-- [root] aws_cognito_user_pool_domain.identity_domain (expand) -->
<g id="node3" class="node">
<title>[root] aws_cognito_user_pool_domain.identity_domain (expand)</title>
<polygon fill="none" stroke="black" points="485.03,-252 191.03,-252 191.03,-216 485.03,-216 485.03,-252"/>
<text text-anchor="middle" x="338.03" y="-230.3" font-family="Times,serif" font-size="14.00">aws_cognito_user_pool_domain.identity_domain</text>
</g>
<!-- [root] aws_cognito_user_pool_domain.identity_domain (expand)&#45;&gt;[root] aws_cognito_user_pool.pool (expand) -->
<g id="edge4" class="edge">
<title>[root] aws_cognito_user_pool_domain.identity_domain (expand)&#45;&gt;[root] aws_cognito_user_pool.pool (expand)</title>
<path fill="none" stroke="black" d="M338.03,-215.7C338.03,-207.98 338.03,-198.71 338.03,-190.11"/>
<polygon fill="black" stroke="black" points="341.53,-190.1 338.03,-180.1 334.53,-190.1 341.53,-190.1"/>
</g>
<!-- [root] output.aws_profile -->
<g id="node4" class="node">
<title>[root] output.aws_profile</title>
<polygon fill="none" stroke="black" points="134.53,-180 19.53,-180 19.53,-144 140.53,-144 140.53,-174 134.53,-180"/>
<polyline fill="none" stroke="black" points="134.53,-180 134.53,-174 "/>
<polyline fill="none" stroke="black" points="140.53,-174 134.53,-174 "/>
<text text-anchor="middle" x="80.03" y="-158.3" font-family="Times,serif" font-size="14.00">output.aws_profile</text>
</g>
<!-- [root] var.aws_profile -->
<g id="node10" class="node">
<title>[root] var.aws_profile</title>
<polygon fill="none" stroke="black" points="476.03,-36 380.03,-36 380.03,0 482.03,0 482.03,-30 476.03,-36"/>
<polyline fill="none" stroke="black" points="476.03,-36 476.03,-30 "/>
<polyline fill="none" stroke="black" points="482.03,-30 476.03,-30 "/>
<text text-anchor="middle" x="431.03" y="-14.3" font-family="Times,serif" font-size="14.00">var.aws_profile</text>
</g>
<!-- [root] output.aws_profile&#45;&gt;[root] var.aws_profile -->
<g id="edge10" class="edge">
<title>[root] output.aws_profile&#45;&gt;[root] var.aws_profile</title>
<path fill="none" stroke="black" d="M91.88,-143.92C107.05,-123.43 135.33,-89.65 168.03,-72 231.41,-37.79 314.17,-25.57 369.78,-21.26"/>
<polygon fill="black" stroke="black" points="370.11,-24.74 379.84,-20.54 369.61,-17.76 370.11,-24.74"/>
</g>
<!-- [root] output.aws_region -->
<g id="node5" class="node">
<title>[root] output.aws_region</title>
<polygon fill="none" stroke="black" points="923.03,-180 809.03,-180 809.03,-144 929.03,-144 929.03,-174 923.03,-180"/>
<polyline fill="none" stroke="black" points="923.03,-180 923.03,-174 "/>
<polyline fill="none" stroke="black" points="929.03,-174 923.03,-174 "/>
<text text-anchor="middle" x="869.03" y="-158.3" font-family="Times,serif" font-size="14.00">output.aws_region</text>
</g>
<!-- [root] var.aws_region -->
<g id="node11" class="node">
<title>[root] var.aws_region</title>
<polygon fill="none" stroke="black" points="745.03,-36 649.03,-36 649.03,0 751.03,0 751.03,-30 745.03,-36"/>
<polyline fill="none" stroke="black" points="745.03,-36 745.03,-30 "/>
<polyline fill="none" stroke="black" points="751.03,-30 745.03,-30 "/>
<text text-anchor="middle" x="700.03" y="-14.3" font-family="Times,serif" font-size="14.00">var.aws_region</text>
</g>
<!-- [root] output.aws_region&#45;&gt;[root] var.aws_region -->
<g id="edge11" class="edge">
<title>[root] output.aws_region&#45;&gt;[root] var.aws_region</title>
<path fill="none" stroke="black" d="M866.23,-143.68C862.18,-123.91 852.88,-91.75 833.03,-72 813.5,-52.58 785.97,-40.04 761.01,-32.06"/>
<polygon fill="black" stroke="black" points="761.82,-28.65 751.23,-29.12 759.8,-35.36 761.82,-28.65"/>
</g>
<!-- [root] output.cognito_client -->
<g id="node6" class="node">
<title>[root] output.cognito_client</title>
<polygon fill="none" stroke="black" points="357.03,-324 227.03,-324 227.03,-288 363.03,-288 363.03,-318 357.03,-324"/>
<polyline fill="none" stroke="black" points="357.03,-324 357.03,-318 "/>
<polyline fill="none" stroke="black" points="363.03,-318 357.03,-318 "/>
<text text-anchor="middle" x="295.03" y="-302.3" font-family="Times,serif" font-size="14.00">output.cognito_client</text>
</g>
<!-- [root] output.cognito_client&#45;&gt;[root] aws_cognito_user_pool_client.client (expand) -->
<g id="edge12" class="edge">
<title>[root] output.cognito_client&#45;&gt;[root] aws_cognito_user_pool_client.client (expand)</title>
<path fill="none" stroke="black" d="M363.05,-289.98C366.08,-289.31 369.09,-288.65 372.03,-288 423.1,-276.77 480.24,-264.25 526.17,-254.2"/>
<polygon fill="black" stroke="black" points="527.07,-257.59 536.09,-252.03 525.58,-250.75 527.07,-257.59"/>
</g>
<!-- [root] output.cognito_domain -->
<g id="node7" class="node">
<title>[root] output.cognito_domain</title>
<polygon fill="none" stroke="black" points="202.53,-324 61.53,-324 61.53,-288 208.53,-288 208.53,-318 202.53,-324"/>
<polyline fill="none" stroke="black" points="202.53,-324 202.53,-318 "/>
<polyline fill="none" stroke="black" points="208.53,-318 202.53,-318 "/>
<text text-anchor="middle" x="135.03" y="-302.3" font-family="Times,serif" font-size="14.00">output.cognito_domain</text>
</g>
<!-- [root] output.cognito_domain&#45;&gt;[root] aws_cognito_user_pool_domain.identity_domain (expand) -->
<g id="edge13" class="edge">
<title>[root] output.cognito_domain&#45;&gt;[root] aws_cognito_user_pool_domain.identity_domain (expand)</title>
<path fill="none" stroke="black" d="M184.43,-287.97C212.91,-278.14 248.91,-265.73 278.9,-255.39"/>
<polygon fill="black" stroke="black" points="280.09,-258.68 288.41,-252.11 277.81,-252.06 280.09,-258.68"/>
</g>
<!-- [root] output.cognito_userpool -->
<g id="node8" class="node">
<title>[root] output.cognito_userpool</title>
<polygon fill="none" stroke="black" points="166.53,-252 19.53,-252 19.53,-216 172.53,-216 172.53,-246 166.53,-252"/>
<polyline fill="none" stroke="black" points="166.53,-252 166.53,-246 "/>
<polyline fill="none" stroke="black" points="172.53,-246 166.53,-246 "/>
<text text-anchor="middle" x="96.03" y="-230.3" font-family="Times,serif" font-size="14.00">output.cognito_userpool</text>
</g>
<!-- [root] output.cognito_userpool&#45;&gt;[root] aws_cognito_user_pool.pool (expand) -->
<g id="edge14" class="edge">
<title>[root] output.cognito_userpool&#45;&gt;[root] aws_cognito_user_pool.pool (expand)</title>
<path fill="none" stroke="black" d="M154.92,-215.97C189.32,-206.01 232.91,-193.41 268.93,-182.99"/>
<polygon fill="black" stroke="black" points="270.24,-186.25 278.87,-180.11 268.29,-179.53 270.24,-186.25"/>
</g>
<!-- [root] provider[&quot;registry.terraform.io/hashicorp/aws&quot;]&#45;&gt;[root] var.aws_profile -->
<g id="edge17" class="edge">
<title>[root] provider[&quot;registry.terraform.io/hashicorp/aws&quot;]&#45;&gt;[root] var.aws_profile</title>
<path fill="none" stroke="black" d="M537.07,-73.98C518.44,-64.32 493.92,-51.61 473.16,-40.85"/>
<polygon fill="black" stroke="black" points="474.71,-37.71 464.22,-36.21 471.48,-43.92 474.71,-37.71"/>
</g>
<!-- [root] provider[&quot;registry.terraform.io/hashicorp/aws&quot;]&#45;&gt;[root] var.aws_region -->
<g id="edge18" class="edge">
<title>[root] provider[&quot;registry.terraform.io/hashicorp/aws&quot;]&#45;&gt;[root] var.aws_region</title>
<path fill="none" stroke="black" d="M594.77,-73.98C613.26,-64.32 637.6,-51.61 658.21,-40.85"/>
<polygon fill="black" stroke="black" points="659.84,-43.94 667.08,-36.21 656.6,-37.74 659.84,-43.94"/>
</g>
<!-- [root] meta.count&#45;boundary (EachMode fixup) -->
<g id="node13" class="node">
<title>[root] meta.count&#45;boundary (EachMode fixup)</title>
<ellipse fill="none" stroke="black" cx="215.03" cy="-378" rx="180.07" ry="18"/>
<text text-anchor="middle" x="215.03" y="-374.3" font-family="Times,serif" font-size="14.00">[root] meta.count&#45;boundary (EachMode fixup)</text>
</g>
<!-- [root] meta.count&#45;boundary (EachMode fixup)&#45;&gt;[root] output.aws_profile -->
<g id="edge5" class="edge">
<title>[root] meta.count&#45;boundary (EachMode fixup)&#45;&gt;[root] output.aws_profile</title>
<path fill="none" stroke="black" d="M119.42,-362.7C92.32,-354.87 64.4,-342.75 43.03,-324 5.29,-290.91 -12.32,-260.94 10.03,-216 16.03,-203.93 26.24,-193.87 37.04,-185.88"/>
<polygon fill="black" stroke="black" points="39.09,-188.71 45.35,-180.17 35.12,-182.95 39.09,-188.71"/>
</g>
<!-- [root] meta.count&#45;boundary (EachMode fixup)&#45;&gt;[root] output.aws_region -->
<g id="edge6" class="edge">
<title>[root] meta.count&#45;boundary (EachMode fixup)&#45;&gt;[root] output.aws_region</title>
<path fill="none" stroke="black" d="M390.54,-373.96C568.94,-369.08 823.64,-356.45 856.03,-324 890.92,-289.04 883.95,-225.99 876.21,-190.04"/>
<polygon fill="black" stroke="black" points="879.61,-189.18 873.94,-180.24 872.79,-190.77 879.61,-189.18"/>
</g>
<!-- [root] meta.count&#45;boundary (EachMode fixup)&#45;&gt;[root] output.cognito_client -->
<g id="edge7" class="edge">
<title>[root] meta.count&#45;boundary (EachMode fixup)&#45;&gt;[root] output.cognito_client</title>
<path fill="none" stroke="black" d="M234.39,-360.05C244.44,-351.26 256.88,-340.38 267.87,-330.76"/>
<polygon fill="black" stroke="black" points="270.34,-333.25 275.56,-324.03 265.73,-327.98 270.34,-333.25"/>
</g>
<!-- [root] meta.count&#45;boundary (EachMode fixup)&#45;&gt;[root] output.cognito_domain -->
<g id="edge8" class="edge">
<title>[root] meta.count&#45;boundary (EachMode fixup)&#45;&gt;[root] output.cognito_domain</title>
<path fill="none" stroke="black" d="M195.66,-360.05C185.61,-351.26 173.18,-340.38 162.18,-330.76"/>
<polygon fill="black" stroke="black" points="164.32,-327.98 154.49,-324.03 159.71,-333.25 164.32,-327.98"/>
</g>
<!-- [root] meta.count&#45;boundary (EachMode fixup)&#45;&gt;[root] output.cognito_userpool -->
<g id="edge9" class="edge">
<title>[root] meta.count&#45;boundary (EachMode fixup)&#45;&gt;[root] output.cognito_userpool</title>
<path fill="none" stroke="black" d="M109.89,-363.32C87.69,-355.37 66.84,-343.05 53.03,-324 38.49,-303.94 54.02,-278.2 70.34,-259.57"/>
<polygon fill="black" stroke="black" points="73.07,-261.77 77.29,-252.05 67.93,-257.01 73.07,-261.77"/>
</g>
<!-- [root] provider[&quot;registry.terraform.io/hashicorp/aws&quot;] (close) -->
<g id="node14" class="node">
<title>[root] provider[&quot;registry.terraform.io/hashicorp/aws&quot;] (close)</title>
<ellipse fill="none" stroke="black" cx="614.03" cy="-306" rx="232.86" ry="18"/>
<text text-anchor="middle" x="614.03" y="-302.3" font-family="Times,serif" font-size="14.00">[root] provider[&quot;registry.terraform.io/hashicorp/aws&quot;] (close)</text>
</g>
<!-- [root] provider[&quot;registry.terraform.io/hashicorp/aws&quot;] (close)&#45;&gt;[root] aws_cognito_user_pool_client.client (expand) -->
<g id="edge15" class="edge">
<title>[root] provider[&quot;registry.terraform.io/hashicorp/aws&quot;] (close)&#45;&gt;[root] aws_cognito_user_pool_client.client (expand)</title>
<path fill="none" stroke="black" d="M614.03,-287.7C614.03,-279.98 614.03,-270.71 614.03,-262.11"/>
<polygon fill="black" stroke="black" points="617.53,-262.1 614.03,-252.1 610.53,-262.1 617.53,-262.1"/>
</g>
<!-- [root] provider[&quot;registry.terraform.io/hashicorp/aws&quot;] (close)&#45;&gt;[root] aws_cognito_user_pool_domain.identity_domain (expand) -->
<g id="edge16" class="edge">
<title>[root] provider[&quot;registry.terraform.io/hashicorp/aws&quot;] (close)&#45;&gt;[root] aws_cognito_user_pool_domain.identity_domain (expand)</title>
<path fill="none" stroke="black" d="M549.67,-288.68C509.47,-278.48 457.49,-265.3 415.1,-254.55"/>
<polygon fill="black" stroke="black" points="415.93,-251.15 405.38,-252.08 414.21,-257.93 415.93,-251.15"/>
</g>
<!-- [root] root -->
<g id="node15" class="node">
<title>[root] root</title>
<ellipse fill="none" stroke="black" cx="319.03" cy="-450" rx="48.19" ry="18"/>
<text text-anchor="middle" x="319.03" y="-446.3" font-family="Times,serif" font-size="14.00">[root] root</text>
</g>
<!-- [root] root&#45;&gt;[root] meta.count&#45;boundary (EachMode fixup) -->
<g id="edge19" class="edge">
<title>[root] root&#45;&gt;[root] meta.count&#45;boundary (EachMode fixup)</title>
<path fill="none" stroke="black" d="M296.72,-433.98C282.72,-424.56 264.4,-412.23 248.66,-401.64"/>
<polygon fill="black" stroke="black" points="250.47,-398.64 240.22,-395.96 246.56,-404.45 250.47,-398.64"/>
</g>
<!-- [root] root&#45;&gt;[root] provider[&quot;registry.terraform.io/hashicorp/aws&quot;] (close) -->
<g id="edge20" class="edge">
<title>[root] root&#45;&gt;[root] provider[&quot;registry.terraform.io/hashicorp/aws&quot;] (close)</title>
<path fill="none" stroke="black" d="M347.31,-435.38C398.89,-410.56 508.55,-357.77 569.98,-328.2"/>
<polygon fill="black" stroke="black" points="571.55,-331.33 579.05,-323.84 568.52,-325.02 571.55,-331.33"/>
</g>
</g>
</svg>
