<?xml version="1.0" encoding="UTF-8" standalone="no"?>
<!DOCTYPE svg PUBLIC "-//W3C//DTD SVG 1.1//EN"
 "http://www.w3.org/Graphics/SVG/1.1/DTD/svg11.dtd">
<!-- Generated by graphviz version 2.49.1 (20210923.0004)
 -->
<!-- Pages: 1 -->
<svg width="2480pt" height="620pt"
 viewBox="0.00 0.00 2480.33 620.00" xmlns="http://www.w3.org/2000/svg" xmlns:xlink="http://www.w3.org/1999/xlink">
<g id="graph0" class="graph" transform="scale(1 1) rotate(0) translate(4 616)">
<polygon fill="white" stroke="transparent" points="-4,4 -4,-616 2476.33,-616 2476.33,4 -4,4"/>
<!-- [root] aws_apigatewayv2_api.lambda (expand) -->
<g id="node1" class="node">
<title>[root] aws_apigatewayv2_api.lambda (expand)</title>
<polygon fill="none" stroke="black" points="1232.33,-252 1040.33,-252 1040.33,-216 1232.33,-216 1232.33,-252"/>
<text text-anchor="middle" x="1136.33" y="-230.3" font-family="Times,serif" font-size="14.00">aws_apigatewayv2_api.lambda</text>
</g>
<!-- [root] provider[&quot;registry.terraform.io/hashicorp/aws&quot;] -->
<g id="node27" class="node">
<title>[root] provider[&quot;registry.terraform.io/hashicorp/aws&quot;]</title>
<polygon fill="none" stroke="black" points="1623.33,-108 1365.26,-90 1623.33,-72 1881.39,-90 1623.33,-108"/>
<text text-anchor="middle" x="1623.33" y="-86.3" font-family="Times,serif" font-size="14.00">provider[&quot;registry.terraform.io/hashicorp/aws&quot;]</text>
</g>
<!-- [root] aws_apigatewayv2_api.lambda (expand)&#45;&gt;[root] provider[&quot;registry.terraform.io/hashicorp/aws&quot;] -->
<g id="edge1" class="edge">
<title>[root] aws_apigatewayv2_api.lambda (expand)&#45;&gt;[root] provider[&quot;registry.terraform.io/hashicorp/aws&quot;]</title>
<path fill="none" stroke="black" d="M1170.07,-215.86C1210.53,-195.95 1280.84,-163.36 1344.33,-144 1404.6,-125.62 1474.22,-112.38 1528.84,-103.73"/>
<polygon fill="black" stroke="black" points="1529.52,-107.17 1538.86,-102.17 1528.44,-100.25 1529.52,-107.17"/>
</g>
<!-- [root] aws_apigatewayv2_authorizer.api_auth (expand) -->
<g id="node2" class="node">
<title>[root] aws_apigatewayv2_authorizer.api_auth (expand)</title>
<polygon fill="none" stroke="black" points="1288.33,-396 1050.33,-396 1050.33,-360 1288.33,-360 1288.33,-396"/>
<text text-anchor="middle" x="1169.33" y="-374.3" font-family="Times,serif" font-size="14.00">aws_apigatewayv2_authorizer.api_auth</text>
</g>
<!-- [root] aws_apigatewayv2_authorizer.api_auth (expand)&#45;&gt;[root] aws_apigatewayv2_api.lambda (expand) -->
<g id="edge2" class="edge">
<title>[root] aws_apigatewayv2_authorizer.api_auth (expand)&#45;&gt;[root] aws_apigatewayv2_api.lambda (expand)</title>
<path fill="none" stroke="black" d="M1165.35,-359.87C1159.7,-335.56 1149.3,-290.82 1142.61,-262.01"/>
<polygon fill="black" stroke="black" points="1146,-261.14 1140.32,-252.19 1139.18,-262.72 1146,-261.14"/>
</g>
<!-- [root] aws_cognito_user_pool_client.client (expand) -->
<g id="node9" class="node">
<title>[root] aws_cognito_user_pool_client.client (expand)</title>
<polygon fill="none" stroke="black" points="2180.33,-324 1958.33,-324 1958.33,-288 2180.33,-288 2180.33,-324"/>
<text text-anchor="middle" x="2069.33" y="-302.3" font-family="Times,serif" font-size="14.00">aws_cognito_user_pool_client.client</text>
</g>
<!-- [root] aws_apigatewayv2_authorizer.api_auth (expand)&#45;&gt;[root] aws_cognito_user_pool_client.client (expand) -->
<g id="edge3" class="edge">
<title>[root] aws_apigatewayv2_authorizer.api_auth (expand)&#45;&gt;[root] aws_cognito_user_pool_client.client (expand)</title>
<path fill="none" stroke="black" d="M1288.53,-360.92C1291.49,-360.6 1294.43,-360.29 1297.33,-360 1526.81,-336.91 1795.7,-320.95 1947.93,-312.95"/>
<polygon fill="black" stroke="black" points="1948.43,-316.42 1958.24,-312.41 1948.07,-309.43 1948.43,-316.42"/>
</g>
<!-- [root] aws_apigatewayv2_integration.hello_world (expand) -->
<g id="node3" class="node">
<title>[root] aws_apigatewayv2_integration.hello_world (expand)</title>
<polygon fill="none" stroke="black" points="1032.33,-396 770.33,-396 770.33,-360 1032.33,-360 1032.33,-396"/>
<text text-anchor="middle" x="901.33" y="-374.3" font-family="Times,serif" font-size="14.00">aws_apigatewayv2_integration.hello_world</text>
</g>
<!-- [root] aws_apigatewayv2_integration.hello_world (expand)&#45;&gt;[root] aws_apigatewayv2_api.lambda (expand) -->
<g id="edge4" class="edge">
<title>[root] aws_apigatewayv2_integration.hello_world (expand)&#45;&gt;[root] aws_apigatewayv2_api.lambda (expand)</title>
<path fill="none" stroke="black" d="M1007.59,-359.93C1033.85,-352.09 1060.65,-340.66 1082.33,-324 1103.17,-307.99 1117.76,-281.44 1126.47,-261.5"/>
<polygon fill="black" stroke="black" points="1129.8,-262.62 1130.39,-252.05 1123.33,-259.95 1129.8,-262.62"/>
</g>
<!-- [root] aws_lambda_function.hello_world (expand) -->
<g id="node13" class="node">
<title>[root] aws_lambda_function.hello_world (expand)</title>
<polygon fill="none" stroke="black" points="1591.83,-324 1380.83,-324 1380.83,-288 1591.83,-288 1591.83,-324"/>
<text text-anchor="middle" x="1486.33" y="-302.3" font-family="Times,serif" font-size="14.00">aws_lambda_function.hello_world</text>
</g>
<!-- [root] aws_apigatewayv2_integration.hello_world (expand)&#45;&gt;[root] aws_lambda_function.hello_world (expand) -->
<g id="edge5" class="edge">
<title>[root] aws_apigatewayv2_integration.hello_world (expand)&#45;&gt;[root] aws_lambda_function.hello_world (expand)</title>
<path fill="none" stroke="black" d="M1032.48,-361.06C1035.46,-360.71 1038.41,-360.35 1041.33,-360 1153.2,-346.55 1280.91,-331.35 1370.73,-320.69"/>
<polygon fill="black" stroke="black" points="1371.16,-324.17 1380.67,-319.51 1370.33,-317.22 1371.16,-324.17"/>
</g>
<!-- [root] aws_apigatewayv2_route.hello_world (expand) -->
<g id="node4" class="node">
<title>[root] aws_apigatewayv2_route.hello_world (expand)</title>
<polygon fill="none" stroke="black" points="1016.33,-468 786.33,-468 786.33,-432 1016.33,-432 1016.33,-468"/>
<text text-anchor="middle" x="901.33" y="-446.3" font-family="Times,serif" font-size="14.00">aws_apigatewayv2_route.hello_world</text>
</g>
<!-- [root] aws_apigatewayv2_route.hello_world (expand)&#45;&gt;[root] aws_apigatewayv2_authorizer.api_auth (expand) -->
<g id="edge6" class="edge">
<title>[root] aws_apigatewayv2_route.hello_world (expand)&#45;&gt;[root] aws_apigatewayv2_authorizer.api_auth (expand)</title>
<path fill="none" stroke="black" d="M966.55,-431.97C1005.05,-421.91 1053.95,-409.14 1094.08,-398.65"/>
<polygon fill="black" stroke="black" points="1095.03,-402.02 1103.82,-396.11 1093.26,-395.25 1095.03,-402.02"/>
</g>
<!-- [root] aws_apigatewayv2_route.hello_world (expand)&#45;&gt;[root] aws_apigatewayv2_integration.hello_world (expand) -->
<g id="edge7" class="edge">
<title>[root] aws_apigatewayv2_route.hello_world (expand)&#45;&gt;[root] aws_apigatewayv2_integration.hello_world (expand)</title>
<path fill="none" stroke="black" d="M901.33,-431.7C901.33,-423.98 901.33,-414.71 901.33,-406.11"/>
<polygon fill="black" stroke="black" points="904.83,-406.1 901.33,-396.1 897.83,-406.1 904.83,-406.1"/>
</g>
<!-- [root] aws_apigatewayv2_stage.lambda (expand) -->
<g id="node5" class="node">
<title>[root] aws_apigatewayv2_stage.lambda (expand)</title>
<polygon fill="none" stroke="black" points="751.83,-396 548.83,-396 548.83,-360 751.83,-360 751.83,-396"/>
<text text-anchor="middle" x="650.33" y="-374.3" font-family="Times,serif" font-size="14.00">aws_apigatewayv2_stage.lambda</text>
</g>
<!-- [root] aws_cloudwatch_log_group.api_gw (expand) -->
<g id="node6" class="node">
<title>[root] aws_cloudwatch_log_group.api_gw (expand)</title>
<polygon fill="none" stroke="black" points="1073.83,-324 854.83,-324 854.83,-288 1073.83,-288 1073.83,-324"/>
<text text-anchor="middle" x="964.33" y="-302.3" font-family="Times,serif" font-size="14.00">aws_cloudwatch_log_group.api_gw</text>
</g>
<!-- [root] aws_apigatewayv2_stage.lambda (expand)&#45;&gt;[root] aws_cloudwatch_log_group.api_gw (expand) -->
<g id="edge8" class="edge">
<title>[root] aws_apigatewayv2_stage.lambda (expand)&#45;&gt;[root] aws_cloudwatch_log_group.api_gw (expand)</title>
<path fill="none" stroke="black" d="M726.74,-359.97C772.41,-349.78 830.57,-336.82 877.92,-326.26"/>
<polygon fill="black" stroke="black" points="878.85,-329.64 887.85,-324.05 877.32,-322.81 878.85,-329.64"/>
</g>
<!-- [root] aws_cloudwatch_log_group.api_gw (expand)&#45;&gt;[root] aws_apigatewayv2_api.lambda (expand) -->
<g id="edge9" class="edge">
<title>[root] aws_cloudwatch_log_group.api_gw (expand)&#45;&gt;[root] aws_apigatewayv2_api.lambda (expand)</title>
<path fill="none" stroke="black" d="M1006.4,-287.88C1030.13,-278.22 1059.94,-266.09 1085.03,-255.88"/>
<polygon fill="black" stroke="black" points="1086.45,-259.08 1094.39,-252.07 1083.81,-252.6 1086.45,-259.08"/>
</g>
<!-- [root] aws_cloudwatch_log_group.hello_world (expand) -->
<g id="node7" class="node">
<title>[root] aws_cloudwatch_log_group.hello_world (expand)</title>
<polygon fill="none" stroke="black" points="1516.33,-468 1270.33,-468 1270.33,-432 1516.33,-432 1516.33,-468"/>
<text text-anchor="middle" x="1393.33" y="-446.3" font-family="Times,serif" font-size="14.00">aws_cloudwatch_log_group.hello_world</text>
</g>
<!-- [root] aws_cloudwatch_log_group.hello_world (expand)&#45;&gt;[root] aws_lambda_function.hello_world (expand) -->
<g id="edge10" class="edge">
<title>[root] aws_cloudwatch_log_group.hello_world (expand)&#45;&gt;[root] aws_lambda_function.hello_world (expand)</title>
<path fill="none" stroke="black" d="M1468.86,-431.89C1487.09,-424.04 1504.44,-412.61 1515.33,-396 1528.02,-376.64 1517.61,-351.27 1505.88,-332.57"/>
<polygon fill="black" stroke="black" points="1508.77,-330.6 1500.29,-324.24 1502.95,-334.5 1508.77,-330.6"/>
</g>
<!-- [root] aws_cognito_user_pool.pool (expand) -->
<g id="node8" class="node">
<title>[root] aws_cognito_user_pool.pool (expand)</title>
<polygon fill="none" stroke="black" points="2290.33,-252 2112.33,-252 2112.33,-216 2290.33,-216 2290.33,-252"/>
<text text-anchor="middle" x="2201.33" y="-230.3" font-family="Times,serif" font-size="14.00">aws_cognito_user_pool.pool</text>
</g>
<!-- [root] aws_cognito_user_pool.pool (expand)&#45;&gt;[root] provider[&quot;registry.terraform.io/hashicorp/aws&quot;] -->
<g id="edge11" class="edge">
<title>[root] aws_cognito_user_pool.pool (expand)&#45;&gt;[root] provider[&quot;registry.terraform.io/hashicorp/aws&quot;]</title>
<path fill="none" stroke="black" d="M2203.13,-215.66C2204.18,-195.25 2202.39,-161.86 2182.33,-144 2153.68,-118.49 1948.89,-104.31 1795.42,-97.18"/>
<polygon fill="black" stroke="black" points="1795.54,-93.68 1785.39,-96.72 1795.22,-100.67 1795.54,-93.68"/>
</g>
<!-- [root] var.project_name -->
<g id="node32" class="node">
<title>[root] var.project_name</title>
<polygon fill="none" stroke="black" points="2166.83,-180 2059.83,-180 2059.83,-144 2172.83,-144 2172.83,-174 2166.83,-180"/>
<polyline fill="none" stroke="black" points="2166.83,-180 2166.83,-174 "/>
<polyline fill="none" stroke="black" points="2172.83,-174 2166.83,-174 "/>
<text text-anchor="middle" x="2116.33" y="-158.3" font-family="Times,serif" font-size="14.00">var.project_name</text>
</g>
<!-- [root] aws_cognito_user_pool.pool (expand)&#45;&gt;[root] var.project_name -->
<g id="edge12" class="edge">
<title>[root] aws_cognito_user_pool.pool (expand)&#45;&gt;[root] var.project_name</title>
<path fill="none" stroke="black" d="M2180.32,-215.7C2169.61,-206.88 2156.44,-196.03 2144.83,-186.47"/>
<polygon fill="black" stroke="black" points="2147.04,-183.76 2137.1,-180.1 2142.59,-189.16 2147.04,-183.76"/>
</g>
<!-- [root] aws_cognito_user_pool_client.client (expand)&#45;&gt;[root] aws_cognito_user_pool.pool (expand) -->
<g id="edge13" class="edge">
<title>[root] aws_cognito_user_pool_client.client (expand)&#45;&gt;[root] aws_cognito_user_pool.pool (expand)</title>
<path fill="none" stroke="black" d="M2101.62,-287.88C2119.2,-278.55 2141.14,-266.92 2159.96,-256.94"/>
<polygon fill="black" stroke="black" points="2161.72,-259.97 2168.91,-252.19 2158.44,-253.78 2161.72,-259.97"/>
</g>
<!-- [root] aws_cognito_user_pool_domain.identity_domain (expand) -->
<g id="node10" class="node">
<title>[root] aws_cognito_user_pool_domain.identity_domain (expand)</title>
<polygon fill="none" stroke="black" points="2406.33,-396 2112.33,-396 2112.33,-360 2406.33,-360 2406.33,-396"/>
<text text-anchor="middle" x="2259.33" y="-374.3" font-family="Times,serif" font-size="14.00">aws_cognito_user_pool_domain.identity_domain</text>
</g>
<!-- [root] aws_cognito_user_pool_domain.identity_domain (expand)&#45;&gt;[root] aws_cognito_user_pool.pool (expand) -->
<g id="edge14" class="edge">
<title>[root] aws_cognito_user_pool_domain.identity_domain (expand)&#45;&gt;[root] aws_cognito_user_pool.pool (expand)</title>
<path fill="none" stroke="black" d="M2252.33,-359.87C2242.36,-335.46 2223.97,-290.43 2212.21,-261.64"/>
<polygon fill="black" stroke="black" points="2215.37,-260.12 2208.35,-252.19 2208.89,-262.77 2215.37,-260.12"/>
</g>
<!-- [root] aws_iam_role.lambda_exec (expand) -->
<g id="node11" class="node">
<title>[root] aws_iam_role.lambda_exec (expand)</title>
<polygon fill="none" stroke="black" points="1704.33,-252 1532.33,-252 1532.33,-216 1704.33,-216 1704.33,-252"/>
<text text-anchor="middle" x="1618.33" y="-230.3" font-family="Times,serif" font-size="14.00">aws_iam_role.lambda_exec</text>
</g>
<!-- [root] aws_iam_role.lambda_exec (expand)&#45;&gt;[root] provider[&quot;registry.terraform.io/hashicorp/aws&quot;] -->
<g id="edge15" class="edge">
<title>[root] aws_iam_role.lambda_exec (expand)&#45;&gt;[root] provider[&quot;registry.terraform.io/hashicorp/aws&quot;]</title>
<path fill="none" stroke="black" d="M1618.93,-215.87C1619.78,-191.67 1621.35,-147.21 1622.36,-118.39"/>
<polygon fill="black" stroke="black" points="1625.87,-118.31 1622.72,-108.19 1618.87,-118.06 1625.87,-118.31"/>
</g>
<!-- [root] aws_iam_role_policy_attachment.lambda_policy (expand) -->
<g id="node12" class="node">
<title>[root] aws_iam_role_policy_attachment.lambda_policy (expand)</title>
<polygon fill="none" stroke="black" points="1864.33,-468 1572.33,-468 1572.33,-432 1864.33,-432 1864.33,-468"/>
<text text-anchor="middle" x="1718.33" y="-446.3" font-family="Times,serif" font-size="14.00">aws_iam_role_policy_attachment.lambda_policy</text>
</g>
<!-- [root] aws_iam_role_policy_attachment.lambda_policy (expand)&#45;&gt;[root] aws_iam_role.lambda_exec (expand) -->
<g id="edge16" class="edge">
<title>[root] aws_iam_role_policy_attachment.lambda_policy (expand)&#45;&gt;[root] aws_iam_role.lambda_exec (expand)</title>
<path fill="none" stroke="black" d="M1719.73,-432C1720.62,-413.63 1720.26,-383.8 1711.33,-360 1696.55,-320.64 1665.44,-283 1643.27,-259.49"/>
<polygon fill="black" stroke="black" points="1645.59,-256.86 1636.13,-252.08 1640.55,-261.71 1645.59,-256.86"/>
</g>
<!-- [root] aws_lambda_function.hello_world (expand)&#45;&gt;[root] aws_iam_role.lambda_exec (expand) -->
<g id="edge17" class="edge">
<title>[root] aws_lambda_function.hello_world (expand)&#45;&gt;[root] aws_iam_role.lambda_exec (expand)</title>
<path fill="none" stroke="black" d="M1518.62,-287.88C1536.2,-278.55 1558.14,-266.92 1576.96,-256.94"/>
<polygon fill="black" stroke="black" points="1578.72,-259.97 1585.91,-252.19 1575.44,-253.78 1578.72,-259.97"/>
</g>
<!-- [root] aws_s3_bucket_object.lambda_hello_world (expand) -->
<g id="node16" class="node">
<title>[root] aws_s3_bucket_object.lambda_hello_world (expand)</title>
<polygon fill="none" stroke="black" points="1513.83,-252 1250.83,-252 1250.83,-216 1513.83,-216 1513.83,-252"/>
<text text-anchor="middle" x="1382.33" y="-230.3" font-family="Times,serif" font-size="14.00">aws_s3_bucket_object.lambda_hello_world</text>
</g>
<!-- [root] aws_lambda_function.hello_world (expand)&#45;&gt;[root] aws_s3_bucket_object.lambda_hello_world (expand) -->
<g id="edge18" class="edge">
<title>[root] aws_lambda_function.hello_world (expand)&#45;&gt;[root] aws_s3_bucket_object.lambda_hello_world (expand)</title>
<path fill="none" stroke="black" d="M1460.89,-287.88C1447.54,-278.89 1431,-267.76 1416.55,-258.03"/>
<polygon fill="black" stroke="black" points="1418.12,-254.87 1407.87,-252.19 1414.21,-260.68 1418.12,-254.87"/>
</g>
<!-- [root] aws_lambda_permission.api_gw (expand) -->
<g id="node14" class="node">
<title>[root] aws_lambda_permission.api_gw (expand)</title>
<polygon fill="none" stroke="black" points="1506.33,-396 1306.33,-396 1306.33,-360 1506.33,-360 1506.33,-396"/>
<text text-anchor="middle" x="1406.33" y="-374.3" font-family="Times,serif" font-size="14.00">aws_lambda_permission.api_gw</text>
</g>
<!-- [root] aws_lambda_permission.api_gw (expand)&#45;&gt;[root] aws_apigatewayv2_api.lambda (expand) -->
<g id="edge19" class="edge">
<title>[root] aws_lambda_permission.api_gw (expand)&#45;&gt;[root] aws_apigatewayv2_api.lambda (expand)</title>
<path fill="none" stroke="black" d="M1373.76,-359.87C1324.7,-334.07 1231.87,-285.25 1177.96,-256.9"/>
<polygon fill="black" stroke="black" points="1179.49,-253.75 1169.01,-252.19 1176.23,-259.94 1179.49,-253.75"/>
</g>
<!-- [root] aws_lambda_permission.api_gw (expand)&#45;&gt;[root] aws_lambda_function.hello_world (expand) -->
<g id="edge20" class="edge">
<title>[root] aws_lambda_permission.api_gw (expand)&#45;&gt;[root] aws_lambda_function.hello_world (expand)</title>
<path fill="none" stroke="black" d="M1426.1,-359.7C1436.08,-350.97 1448.34,-340.24 1459.18,-330.75"/>
<polygon fill="black" stroke="black" points="1461.56,-333.32 1466.78,-324.1 1456.95,-328.06 1461.56,-333.32"/>
</g>
<!-- [root] aws_s3_bucket.lambda_bucket (expand) -->
<g id="node15" class="node">
<title>[root] aws_s3_bucket.lambda_bucket (expand)</title>
<polygon fill="none" stroke="black" points="1544.83,-180 1353.83,-180 1353.83,-144 1544.83,-144 1544.83,-180"/>
<text text-anchor="middle" x="1449.33" y="-158.3" font-family="Times,serif" font-size="14.00">aws_s3_bucket.lambda_bucket</text>
</g>
<!-- [root] aws_s3_bucket.lambda_bucket (expand)&#45;&gt;[root] provider[&quot;registry.terraform.io/hashicorp/aws&quot;] -->
<g id="edge21" class="edge">
<title>[root] aws_s3_bucket.lambda_bucket (expand)&#45;&gt;[root] provider[&quot;registry.terraform.io/hashicorp/aws&quot;]</title>
<path fill="none" stroke="black" d="M1491.89,-143.88C1517.88,-133.42 1551.09,-120.06 1577.63,-109.38"/>
<polygon fill="black" stroke="black" points="1579.11,-112.56 1587.08,-105.58 1576.5,-106.07 1579.11,-112.56"/>
</g>
<!-- [root] random_pet.lambda_bucket_name (expand) -->
<g id="node29" class="node">
<title>[root] random_pet.lambda_bucket_name (expand)</title>
<polygon fill="none" stroke="black" points="573.33,-108 363.33,-108 363.33,-72 573.33,-72 573.33,-108"/>
<text text-anchor="middle" x="468.33" y="-86.3" font-family="Times,serif" font-size="14.00">random_pet.lambda_bucket_name</text>
</g>
<!-- [root] aws_s3_bucket.lambda_bucket (expand)&#45;&gt;[root] random_pet.lambda_bucket_name (expand) -->
<g id="edge22" class="edge">
<title>[root] aws_s3_bucket.lambda_bucket (expand)&#45;&gt;[root] random_pet.lambda_bucket_name (expand)</title>
<path fill="none" stroke="black" d="M1353.48,-154.16C1171.98,-141.21 778.86,-113.16 583.43,-99.21"/>
<polygon fill="black" stroke="black" points="583.64,-95.72 573.42,-98.5 583.14,-102.7 583.64,-95.72"/>
</g>
<!-- [root] aws_s3_bucket_object.lambda_hello_world (expand)&#45;&gt;[root] aws_s3_bucket.lambda_bucket (expand) -->
<g id="edge23" class="edge">
<title>[root] aws_s3_bucket_object.lambda_hello_world (expand)&#45;&gt;[root] aws_s3_bucket.lambda_bucket (expand)</title>
<path fill="none" stroke="black" d="M1398.89,-215.7C1407,-207.22 1416.92,-196.86 1425.8,-187.58"/>
<polygon fill="black" stroke="black" points="1428.57,-189.75 1432.96,-180.1 1423.51,-184.91 1428.57,-189.75"/>
</g>
<!-- [root] data.archive_file.lambda_hello_world (expand) -->
<g id="node17" class="node">
<title>[root] data.archive_file.lambda_hello_world (expand)</title>
<polygon fill="none" stroke="black" points="1158.83,-180 929.83,-180 929.83,-144 1158.83,-144 1158.83,-180"/>
<text text-anchor="middle" x="1044.33" y="-158.3" font-family="Times,serif" font-size="14.00">data.archive_file.lambda_hello_world</text>
</g>
<!-- [root] aws_s3_bucket_object.lambda_hello_world (expand)&#45;&gt;[root] data.archive_file.lambda_hello_world (expand) -->
<g id="edge24" class="edge">
<title>[root] aws_s3_bucket_object.lambda_hello_world (expand)&#45;&gt;[root] data.archive_file.lambda_hello_world (expand)</title>
<path fill="none" stroke="black" d="M1300.08,-215.97C1250.71,-205.74 1187.78,-192.71 1136.71,-182.13"/>
<polygon fill="black" stroke="black" points="1137.16,-178.65 1126.66,-180.05 1135.74,-185.51 1137.16,-178.65"/>
</g>
<!-- [root] provider[&quot;registry.terraform.io/hashicorp/archive&quot;] -->
<g id="node26" class="node">
<title>[root] provider[&quot;registry.terraform.io/hashicorp/archive&quot;]</title>
<polygon fill="none" stroke="black" points="1044.33,-108 767.5,-90 1044.33,-72 1321.16,-90 1044.33,-108"/>
<text text-anchor="middle" x="1044.33" y="-86.3" font-family="Times,serif" font-size="14.00">provider[&quot;registry.terraform.io/hashicorp/archive&quot;]</text>
</g>
<!-- [root] data.archive_file.lambda_hello_world (expand)&#45;&gt;[root] provider[&quot;registry.terraform.io/hashicorp/archive&quot;] -->
<g id="edge25" class="edge">
<title>[root] data.archive_file.lambda_hello_world (expand)&#45;&gt;[root] provider[&quot;registry.terraform.io/hashicorp/archive&quot;]</title>
<path fill="none" stroke="black" d="M1044.33,-143.7C1044.33,-135.98 1044.33,-126.71 1044.33,-118.11"/>
<polygon fill="black" stroke="black" points="1047.83,-118.1 1044.33,-108.1 1040.83,-118.1 1047.83,-118.1"/>
</g>
<!-- [root] output.aws_profile -->
<g id="node18" class="node">
<title>[root] output.aws_profile</title>
<polygon fill="none" stroke="black" points="2298.83,-108 2183.83,-108 2183.83,-72 2304.83,-72 2304.83,-102 2298.83,-108"/>
<polyline fill="none" stroke="black" points="2298.83,-108 2298.83,-102 "/>
<polyline fill="none" stroke="black" points="2304.83,-102 2298.83,-102 "/>
<text text-anchor="middle" x="2244.33" y="-86.3" font-family="Times,serif" font-size="14.00">output.aws_profile</text>
</g>
<!-- [root] var.aws_profile -->
<g id="node30" class="node">
<title>[root] var.aws_profile</title>
<polygon fill="none" stroke="black" points="2064.33,-36 1968.33,-36 1968.33,0 2070.33,0 2070.33,-30 2064.33,-36"/>
<polyline fill="none" stroke="black" points="2064.33,-36 2064.33,-30 "/>
<polyline fill="none" stroke="black" points="2070.33,-30 2064.33,-30 "/>
<text text-anchor="middle" x="2019.33" y="-14.3" font-family="Times,serif" font-size="14.00">var.aws_profile</text>
</g>
<!-- [root] output.aws_profile&#45;&gt;[root] var.aws_profile -->
<g id="edge38" class="edge">
<title>[root] output.aws_profile&#45;&gt;[root] var.aws_profile</title>
<path fill="none" stroke="black" d="M2189.57,-71.97C2156.54,-61.69 2114.4,-48.58 2080.31,-37.97"/>
<polygon fill="black" stroke="black" points="2081.05,-34.54 2070.46,-34.91 2078.97,-41.22 2081.05,-34.54"/>
</g>
<!-- [root] output.aws_region -->
<g id="node19" class="node">
<title>[root] output.aws_region</title>
<polygon fill="none" stroke="black" points="1978.33,-180 1864.33,-180 1864.33,-144 1984.33,-144 1984.33,-174 1978.33,-180"/>
<polyline fill="none" stroke="black" points="1978.33,-180 1978.33,-174 "/>
<polyline fill="none" stroke="black" points="1984.33,-174 1978.33,-174 "/>
<text text-anchor="middle" x="1924.33" y="-158.3" font-family="Times,serif" font-size="14.00">output.aws_region</text>
</g>
<!-- [root] var.aws_region -->
<g id="node31" class="node">
<title>[root] var.aws_region</title>
<polygon fill="none" stroke="black" points="1817.33,-36 1721.33,-36 1721.33,0 1823.33,0 1823.33,-30 1817.33,-36"/>
<polyline fill="none" stroke="black" points="1817.33,-36 1817.33,-30 "/>
<polyline fill="none" stroke="black" points="1823.33,-30 1817.33,-30 "/>
<text text-anchor="middle" x="1772.33" y="-14.3" font-family="Times,serif" font-size="14.00">var.aws_region</text>
</g>
<!-- [root] output.aws_region&#45;&gt;[root] var.aws_region -->
<g id="edge39" class="edge">
<title>[root] output.aws_region&#45;&gt;[root] var.aws_region</title>
<path fill="none" stroke="black" d="M1921.8,-143.84C1918.09,-124.22 1909.41,-92.2 1890.33,-72 1874.89,-55.65 1853.47,-43.98 1833.12,-35.83"/>
<polygon fill="black" stroke="black" points="1834.14,-32.48 1823.55,-32.22 1831.67,-39.03 1834.14,-32.48"/>
</g>
<!-- [root] output.base_url -->
<g id="node20" class="node">
<title>[root] output.base_url</title>
<polygon fill="none" stroke="black" points="1169.83,-468 1072.83,-468 1072.83,-432 1175.83,-432 1175.83,-462 1169.83,-468"/>
<polyline fill="none" stroke="black" points="1169.83,-468 1169.83,-462 "/>
<polyline fill="none" stroke="black" points="1175.83,-462 1169.83,-462 "/>
<text text-anchor="middle" x="1124.33" y="-446.3" font-family="Times,serif" font-size="14.00">output.base_url</text>
</g>
<!-- [root] output.base_url&#45;&gt;[root] aws_apigatewayv2_stage.lambda (expand) -->
<g id="edge40" class="edge">
<title>[root] output.base_url&#45;&gt;[root] aws_apigatewayv2_stage.lambda (expand)</title>
<path fill="none" stroke="black" d="M1072.74,-439.8C1057.49,-437.17 1040.75,-434.38 1025.33,-432 911.49,-414.47 880.22,-413.03 762.11,-396.1"/>
<polygon fill="black" stroke="black" points="762.34,-392.59 751.94,-394.63 761.34,-399.52 762.34,-392.59"/>
</g>
<!-- [root] output.cognito_client -->
<g id="node21" class="node">
<title>[root] output.cognito_client</title>
<polygon fill="none" stroke="black" points="2088.33,-396 1958.33,-396 1958.33,-360 2094.33,-360 2094.33,-390 2088.33,-396"/>
<polyline fill="none" stroke="black" points="2088.33,-396 2088.33,-390 "/>
<polyline fill="none" stroke="black" points="2094.33,-390 2088.33,-390 "/>
<text text-anchor="middle" x="2026.33" y="-374.3" font-family="Times,serif" font-size="14.00">output.cognito_client</text>
</g>
<!-- [root] output.cognito_client&#45;&gt;[root] aws_cognito_user_pool_client.client (expand) -->
<g id="edge41" class="edge">
<title>[root] output.cognito_client&#45;&gt;[root] aws_cognito_user_pool_client.client (expand)</title>
<path fill="none" stroke="black" d="M2036.96,-359.7C2041.96,-351.56 2048.02,-341.69 2053.54,-332.7"/>
<polygon fill="black" stroke="black" points="2056.57,-334.46 2058.82,-324.1 2050.6,-330.79 2056.57,-334.46"/>
</g>
<!-- [root] output.cognito_domain -->
<g id="node22" class="node">
<title>[root] output.cognito_domain</title>
<polygon fill="none" stroke="black" points="2246.83,-468 2105.83,-468 2105.83,-432 2252.83,-432 2252.83,-462 2246.83,-468"/>
<polyline fill="none" stroke="black" points="2246.83,-468 2246.83,-462 "/>
<polyline fill="none" stroke="black" points="2252.83,-462 2246.83,-462 "/>
<text text-anchor="middle" x="2179.33" y="-446.3" font-family="Times,serif" font-size="14.00">output.cognito_domain</text>
</g>
<!-- [root] output.cognito_domain&#45;&gt;[root] aws_cognito_user_pool_domain.identity_domain (expand) -->
<g id="edge42" class="edge">
<title>[root] output.cognito_domain&#45;&gt;[root] aws_cognito_user_pool_domain.identity_domain (expand)</title>
<path fill="none" stroke="black" d="M2199.1,-431.7C2209.08,-422.97 2221.34,-412.24 2232.18,-402.75"/>
<polygon fill="black" stroke="black" points="2234.56,-405.32 2239.78,-396.1 2229.95,-400.06 2234.56,-405.32"/>
</g>
<!-- [root] output.cognito_userpool -->
<g id="node23" class="node">
<title>[root] output.cognito_userpool</title>
<polygon fill="none" stroke="black" points="2436.83,-324 2289.83,-324 2289.83,-288 2442.83,-288 2442.83,-318 2436.83,-324"/>
<polyline fill="none" stroke="black" points="2436.83,-324 2436.83,-318 "/>
<polyline fill="none" stroke="black" points="2442.83,-318 2436.83,-318 "/>
<text text-anchor="middle" x="2366.33" y="-302.3" font-family="Times,serif" font-size="14.00">output.cognito_userpool</text>
</g>
<!-- [root] output.cognito_userpool&#45;&gt;[root] aws_cognito_user_pool.pool (expand) -->
<g id="edge43" class="edge">
<title>[root] output.cognito_userpool&#45;&gt;[root] aws_cognito_user_pool.pool (expand)</title>
<path fill="none" stroke="black" d="M2325.96,-287.88C2303.31,-278.26 2274.86,-266.19 2250.86,-256.01"/>
<polygon fill="black" stroke="black" points="2252.13,-252.75 2241.56,-252.07 2249.4,-259.2 2252.13,-252.75"/>
</g>
<!-- [root] output.function_name -->
<g id="node24" class="node">
<title>[root] output.function_name</title>
<polygon fill="none" stroke="black" points="1696.33,-396 1562.33,-396 1562.33,-360 1702.33,-360 1702.33,-390 1696.33,-396"/>
<polyline fill="none" stroke="black" points="1696.33,-396 1696.33,-390 "/>
<polyline fill="none" stroke="black" points="1702.33,-390 1696.33,-390 "/>
<text text-anchor="middle" x="1632.33" y="-374.3" font-family="Times,serif" font-size="14.00">output.function_name</text>
</g>
<!-- [root] output.function_name&#45;&gt;[root] aws_lambda_function.hello_world (expand) -->
<g id="edge44" class="edge">
<title>[root] output.function_name&#45;&gt;[root] aws_lambda_function.hello_world (expand)</title>
<path fill="none" stroke="black" d="M1596.61,-359.88C1576.83,-350.39 1552.06,-338.51 1531,-328.42"/>
<polygon fill="black" stroke="black" points="1532.46,-325.24 1521.93,-324.07 1529.43,-331.55 1532.46,-325.24"/>
</g>
<!-- [root] output.lambda_bucket_name -->
<g id="node25" class="node">
<title>[root] output.lambda_bucket_name</title>
<polygon fill="none" stroke="black" points="1895.83,-252 1722.83,-252 1722.83,-216 1901.83,-216 1901.83,-246 1895.83,-252"/>
<polyline fill="none" stroke="black" points="1895.83,-252 1895.83,-246 "/>
<polyline fill="none" stroke="black" points="1901.83,-246 1895.83,-246 "/>
<text text-anchor="middle" x="1812.33" y="-230.3" font-family="Times,serif" font-size="14.00">output.lambda_bucket_name</text>
</g>
<!-- [root] output.lambda_bucket_name&#45;&gt;[root] aws_s3_bucket.lambda_bucket (expand) -->
<g id="edge45" class="edge">
<title>[root] output.lambda_bucket_name&#45;&gt;[root] aws_s3_bucket.lambda_bucket (expand)</title>
<path fill="none" stroke="black" d="M1723.99,-215.97C1670.75,-205.7 1602.83,-192.6 1547.85,-182"/>
<polygon fill="black" stroke="black" points="1548.23,-178.51 1537.74,-180.05 1546.9,-185.38 1548.23,-178.51"/>
</g>
<!-- [root] provider[&quot;registry.terraform.io/hashicorp/aws&quot;]&#45;&gt;[root] var.aws_profile -->
<g id="edge53" class="edge">
<title>[root] provider[&quot;registry.terraform.io/hashicorp/aws&quot;]&#45;&gt;[root] var.aws_profile</title>
<path fill="none" stroke="black" d="M1692.31,-76.81C1767.28,-63.55 1885.98,-42.57 1957.87,-29.86"/>
<polygon fill="black" stroke="black" points="1958.89,-33.24 1968.13,-28.05 1957.67,-26.34 1958.89,-33.24"/>
</g>
<!-- [root] provider[&quot;registry.terraform.io/hashicorp/aws&quot;]&#45;&gt;[root] var.aws_region -->
<g id="edge54" class="edge">
<title>[root] provider[&quot;registry.terraform.io/hashicorp/aws&quot;]&#45;&gt;[root] var.aws_region</title>
<path fill="none" stroke="black" d="M1654.93,-74.15C1675.8,-64.35 1703.49,-51.34 1726.73,-40.42"/>
<polygon fill="black" stroke="black" points="1728.49,-43.46 1736.06,-36.04 1725.52,-37.12 1728.49,-43.46"/>
</g>
<!-- [root] provider[&quot;registry.terraform.io/hashicorp/random&quot;] -->
<g id="node28" class="node">
<title>[root] provider[&quot;registry.terraform.io/hashicorp/random&quot;]</title>
<polygon fill="none" stroke="black" points="468.33,-36 190.66,-18 468.33,0 746,-18 468.33,-36"/>
<text text-anchor="middle" x="468.33" y="-14.3" font-family="Times,serif" font-size="14.00">provider[&quot;registry.terraform.io/hashicorp/random&quot;]</text>
</g>
<!-- [root] random_pet.lambda_bucket_name (expand)&#45;&gt;[root] provider[&quot;registry.terraform.io/hashicorp/random&quot;] -->
<g id="edge56" class="edge">
<title>[root] random_pet.lambda_bucket_name (expand)&#45;&gt;[root] provider[&quot;registry.terraform.io/hashicorp/random&quot;]</title>
<path fill="none" stroke="black" d="M468.33,-71.7C468.33,-63.98 468.33,-54.71 468.33,-46.11"/>
<polygon fill="black" stroke="black" points="471.83,-46.1 468.33,-36.1 464.83,-46.1 471.83,-46.1"/>
</g>
<!-- [root] meta.count&#45;boundary (EachMode fixup) -->
<g id="node33" class="node">
<title>[root] meta.count&#45;boundary (EachMode fixup)</title>
<ellipse fill="none" stroke="black" cx="1718.33" cy="-522" rx="180.07" ry="18"/>
<text text-anchor="middle" x="1718.33" y="-518.3" font-family="Times,serif" font-size="14.00">[root] meta.count&#45;boundary (EachMode fixup)</text>
</g>
<!-- [root] meta.count&#45;boundary (EachMode fixup)&#45;&gt;[root] aws_apigatewayv2_route.hello_world (expand) -->
<g id="edge26" class="edge">
<title>[root] meta.count&#45;boundary (EachMode fixup)&#45;&gt;[root] aws_apigatewayv2_route.hello_world (expand)</title>
<path fill="none" stroke="black" d="M1578.33,-510.64C1445.66,-500.6 1240.82,-484.49 1063.33,-468 1051.33,-466.89 1038.84,-465.67 1026.35,-464.42"/>
<polygon fill="black" stroke="black" points="1026.64,-460.93 1016.34,-463.41 1025.94,-467.9 1026.64,-460.93"/>
</g>
<!-- [root] meta.count&#45;boundary (EachMode fixup)&#45;&gt;[root] aws_cloudwatch_log_group.hello_world (expand) -->
<g id="edge27" class="edge">
<title>[root] meta.count&#45;boundary (EachMode fixup)&#45;&gt;[root] aws_cloudwatch_log_group.hello_world (expand)</title>
<path fill="none" stroke="black" d="M1646.2,-505.46C1597.8,-495.04 1533.71,-481.24 1482.17,-470.14"/>
<polygon fill="black" stroke="black" points="1482.88,-466.71 1472.37,-468.02 1481.41,-473.55 1482.88,-466.71"/>
</g>
<!-- [root] meta.count&#45;boundary (EachMode fixup)&#45;&gt;[root] aws_iam_role_policy_attachment.lambda_policy (expand) -->
<g id="edge28" class="edge">
<title>[root] meta.count&#45;boundary (EachMode fixup)&#45;&gt;[root] aws_iam_role_policy_attachment.lambda_policy (expand)</title>
<path fill="none" stroke="black" d="M1718.33,-503.7C1718.33,-495.98 1718.33,-486.71 1718.33,-478.11"/>
<polygon fill="black" stroke="black" points="1721.83,-478.1 1718.33,-468.1 1714.83,-478.1 1721.83,-478.1"/>
</g>
<!-- [root] meta.count&#45;boundary (EachMode fixup)&#45;&gt;[root] aws_lambda_permission.api_gw (expand) -->
<g id="edge29" class="edge">
<title>[root] meta.count&#45;boundary (EachMode fixup)&#45;&gt;[root] aws_lambda_permission.api_gw (expand)</title>
<path fill="none" stroke="black" d="M1562.11,-513.01C1437.81,-505 1281.45,-490.59 1261.33,-468 1234.31,-437.67 1278.17,-414.24 1324.55,-399.05"/>
<polygon fill="black" stroke="black" points="1325.66,-402.37 1334.15,-396.03 1323.56,-395.69 1325.66,-402.37"/>
</g>
<!-- [root] meta.count&#45;boundary (EachMode fixup)&#45;&gt;[root] output.aws_profile -->
<g id="edge30" class="edge">
<title>[root] meta.count&#45;boundary (EachMode fixup)&#45;&gt;[root] output.aws_profile</title>
<path fill="none" stroke="black" d="M1887.24,-515.69C2040.85,-509.19 2255.38,-495.46 2335.33,-468 2404,-444.41 2472.33,-451.61 2472.33,-379 2472.33,-379 2472.33,-379 2472.33,-233 2472.33,-157.82 2381.9,-121.01 2314.94,-104.06"/>
<polygon fill="black" stroke="black" points="2315.37,-100.57 2304.83,-101.61 2313.72,-107.37 2315.37,-100.57"/>
</g>
<!-- [root] meta.count&#45;boundary (EachMode fixup)&#45;&gt;[root] output.aws_region -->
<g id="edge31" class="edge">
<title>[root] meta.count&#45;boundary (EachMode fixup)&#45;&gt;[root] output.aws_region</title>
<path fill="none" stroke="black" d="M1820.58,-507.03C1847.45,-499.2 1874.67,-487 1895.33,-468 1926.61,-439.23 1930.33,-421.5 1930.33,-379 1930.33,-379 1930.33,-379 1930.33,-305 1930.33,-264.96 1927.92,-218.63 1926.15,-190.07"/>
<polygon fill="black" stroke="black" points="1929.64,-189.8 1925.51,-180.04 1922.66,-190.24 1929.64,-189.8"/>
</g>
<!-- [root] meta.count&#45;boundary (EachMode fixup)&#45;&gt;[root] output.base_url -->
<g id="edge32" class="edge">
<title>[root] meta.count&#45;boundary (EachMode fixup)&#45;&gt;[root] output.base_url</title>
<path fill="none" stroke="black" d="M1568.14,-512.03C1462.01,-504.2 1316.75,-490.49 1190.33,-468 1188.87,-467.74 1187.4,-467.47 1185.92,-467.18"/>
<polygon fill="black" stroke="black" points="1186.55,-463.74 1176.05,-465.11 1185.12,-470.59 1186.55,-463.74"/>
</g>
<!-- [root] meta.count&#45;boundary (EachMode fixup)&#45;&gt;[root] output.cognito_client -->
<g id="edge33" class="edge">
<title>[root] meta.count&#45;boundary (EachMode fixup)&#45;&gt;[root] output.cognito_client</title>
<path fill="none" stroke="black" d="M1831.93,-507.99C1869.52,-500.21 1910.39,-487.81 1944.33,-468 1971.32,-452.25 1994.63,-424.75 2009.42,-404.48"/>
<polygon fill="black" stroke="black" points="2012.3,-406.47 2015.23,-396.29 2006.59,-402.42 2012.3,-406.47"/>
</g>
<!-- [root] meta.count&#45;boundary (EachMode fixup)&#45;&gt;[root] output.cognito_domain -->
<g id="edge34" class="edge">
<title>[root] meta.count&#45;boundary (EachMode fixup)&#45;&gt;[root] output.cognito_domain</title>
<path fill="none" stroke="black" d="M1812.73,-506.67C1895.84,-494.05 2015.73,-475.84 2095.51,-463.73"/>
<polygon fill="black" stroke="black" points="2096.16,-467.17 2105.52,-462.21 2095.11,-460.25 2096.16,-467.17"/>
</g>
<!-- [root] meta.count&#45;boundary (EachMode fixup)&#45;&gt;[root] output.cognito_userpool -->
<g id="edge35" class="edge">
<title>[root] meta.count&#45;boundary (EachMode fixup)&#45;&gt;[root] output.cognito_userpool</title>
<path fill="none" stroke="black" d="M1895.97,-518.97C2003.63,-514.01 2142.82,-500.88 2262.33,-468 2334.79,-448.06 2375.06,-459.45 2415.33,-396 2428.81,-374.76 2412.06,-349.56 2394.58,-331.41"/>
<polygon fill="black" stroke="black" points="2396.72,-328.6 2387.13,-324.09 2391.81,-333.6 2396.72,-328.6"/>
</g>
<!-- [root] meta.count&#45;boundary (EachMode fixup)&#45;&gt;[root] output.function_name -->
<g id="edge36" class="edge">
<title>[root] meta.count&#45;boundary (EachMode fixup)&#45;&gt;[root] output.function_name</title>
<path fill="none" stroke="black" d="M1618.84,-506.83C1597.16,-498.93 1576.73,-486.74 1563.33,-468 1554.02,-454.98 1556.26,-446.35 1563.33,-432 1569.29,-419.91 1579.48,-409.8 1590.23,-401.77"/>
<polygon fill="black" stroke="black" points="1592.27,-404.61 1598.49,-396.04 1588.28,-398.86 1592.27,-404.61"/>
</g>
<!-- [root] meta.count&#45;boundary (EachMode fixup)&#45;&gt;[root] output.lambda_bucket_name -->
<g id="edge37" class="edge">
<title>[root] meta.count&#45;boundary (EachMode fixup)&#45;&gt;[root] output.lambda_bucket_name</title>
<path fill="none" stroke="black" d="M1817.81,-506.83C1839.49,-498.93 1859.93,-486.74 1873.33,-468 1919.59,-403.29 1863.41,-306.08 1831.49,-260.42"/>
<polygon fill="black" stroke="black" points="1834.32,-258.35 1825.66,-252.25 1828.63,-262.42 1834.32,-258.35"/>
</g>
<!-- [root] provider[&quot;registry.terraform.io/hashicorp/archive&quot;] (close) -->
<g id="node34" class="node">
<title>[root] provider[&quot;registry.terraform.io/hashicorp/archive&quot;] (close)</title>
<ellipse fill="none" stroke="black" cx="574.33" cy="-306" rx="245.86" ry="18"/>
<text text-anchor="middle" x="574.33" y="-302.3" font-family="Times,serif" font-size="14.00">[root] provider[&quot;registry.terraform.io/hashicorp/archive&quot;] (close)</text>
</g>
<!-- [root] provider[&quot;registry.terraform.io/hashicorp/archive&quot;] (close)&#45;&gt;[root] data.archive_file.lambda_hello_world (expand) -->
<g id="edge46" class="edge">
<title>[root] provider[&quot;registry.terraform.io/hashicorp/archive&quot;] (close)&#45;&gt;[root] data.archive_file.lambda_hello_world (expand)</title>
<path fill="none" stroke="black" d="M629.16,-288.43C716.05,-262.18 885.04,-211.12 978.4,-182.92"/>
<polygon fill="black" stroke="black" points="979.46,-186.26 988.02,-180.01 977.43,-179.55 979.46,-186.26"/>
</g>
<!-- [root] provider[&quot;registry.terraform.io/hashicorp/aws&quot;] (close) -->
<g id="node35" class="node">
<title>[root] provider[&quot;registry.terraform.io/hashicorp/aws&quot;] (close)</title>
<ellipse fill="none" stroke="black" cx="1044.33" cy="-522" rx="232.86" ry="18"/>
<text text-anchor="middle" x="1044.33" y="-518.3" font-family="Times,serif" font-size="14.00">[root] provider[&quot;registry.terraform.io/hashicorp/aws&quot;] (close)</text>
</g>
<!-- [root] provider[&quot;registry.terraform.io/hashicorp/aws&quot;] (close)&#45;&gt;[root] aws_apigatewayv2_route.hello_world (expand) -->
<g id="edge47" class="edge">
<title>[root] provider[&quot;registry.terraform.io/hashicorp/aws&quot;] (close)&#45;&gt;[root] aws_apigatewayv2_route.hello_world (expand)</title>
<path fill="none" stroke="black" d="M1009.71,-504.05C990.36,-494.58 966.04,-482.68 945.34,-472.55"/>
<polygon fill="black" stroke="black" points="946.64,-469.28 936.12,-468.03 943.56,-475.57 946.64,-469.28"/>
</g>
<!-- [root] provider[&quot;registry.terraform.io/hashicorp/aws&quot;] (close)&#45;&gt;[root] aws_apigatewayv2_stage.lambda (expand) -->
<g id="edge48" class="edge">
<title>[root] provider[&quot;registry.terraform.io/hashicorp/aws&quot;] (close)&#45;&gt;[root] aws_apigatewayv2_stage.lambda (expand)</title>
<path fill="none" stroke="black" d="M917.49,-506.86C872.04,-498.95 821.22,-486.75 777.33,-468 739.51,-451.85 701.61,-423.29 677.19,-402.88"/>
<polygon fill="black" stroke="black" points="679.33,-400.11 669.44,-396.3 674.8,-405.44 679.33,-400.11"/>
</g>
<!-- [root] provider[&quot;registry.terraform.io/hashicorp/aws&quot;] (close)&#45;&gt;[root] aws_cloudwatch_log_group.hello_world (expand) -->
<g id="edge49" class="edge">
<title>[root] provider[&quot;registry.terraform.io/hashicorp/aws&quot;] (close)&#45;&gt;[root] aws_cloudwatch_log_group.hello_world (expand)</title>
<path fill="none" stroke="black" d="M1123.96,-505.03C1175.85,-494.62 1243.83,-480.99 1298.51,-470.02"/>
<polygon fill="black" stroke="black" points="1299.44,-473.4 1308.56,-468 1298.06,-466.54 1299.44,-473.4"/>
</g>
<!-- [root] provider[&quot;registry.terraform.io/hashicorp/aws&quot;] (close)&#45;&gt;[root] aws_cognito_user_pool_domain.identity_domain (expand) -->
<g id="edge50" class="edge">
<title>[root] provider[&quot;registry.terraform.io/hashicorp/aws&quot;] (close)&#45;&gt;[root] aws_cognito_user_pool_domain.identity_domain (expand)</title>
<path fill="none" stroke="black" d="M1091.02,-504.32C1118.41,-494.3 1153.56,-480.99 1184.33,-468 1219.13,-453.3 1224.63,-440.98 1261.33,-432 1440.13,-388.24 1900.49,-409.4 2101.71,-396.05"/>
<polygon fill="black" stroke="black" points="2102.24,-399.52 2111.96,-395.32 2101.74,-392.54 2102.24,-399.52"/>
</g>
<!-- [root] provider[&quot;registry.terraform.io/hashicorp/aws&quot;] (close)&#45;&gt;[root] aws_iam_role_policy_attachment.lambda_policy (expand) -->
<g id="edge51" class="edge">
<title>[root] provider[&quot;registry.terraform.io/hashicorp/aws&quot;] (close)&#45;&gt;[root] aws_iam_role_policy_attachment.lambda_policy (expand)</title>
<path fill="none" stroke="black" d="M1177.09,-507.21C1287.67,-495.73 1445.36,-479.35 1562.03,-467.23"/>
<polygon fill="black" stroke="black" points="1562.54,-470.7 1572.12,-466.18 1561.81,-463.74 1562.54,-470.7"/>
</g>
<!-- [root] provider[&quot;registry.terraform.io/hashicorp/aws&quot;] (close)&#45;&gt;[root] aws_lambda_permission.api_gw (expand) -->
<g id="edge52" class="edge">
<title>[root] provider[&quot;registry.terraform.io/hashicorp/aws&quot;] (close)&#45;&gt;[root] aws_lambda_permission.api_gw (expand)</title>
<path fill="none" stroke="black" d="M1042.71,-503.86C1041.83,-483.63 1043.8,-450.44 1063.33,-432 1099.57,-397.79 1230.47,-403.32 1295.95,-395.97"/>
<polygon fill="black" stroke="black" points="1296.79,-399.39 1306.25,-394.62 1295.87,-392.45 1296.79,-399.39"/>
</g>
<!-- [root] provider[&quot;registry.terraform.io/hashicorp/random&quot;] (close) -->
<g id="node36" class="node">
<title>[root] provider[&quot;registry.terraform.io/hashicorp/random&quot;] (close)</title>
<ellipse fill="none" stroke="black" cx="246.33" cy="-522" rx="246.16" ry="18"/>
<text text-anchor="middle" x="246.33" y="-518.3" font-family="Times,serif" font-size="14.00">[root] provider[&quot;registry.terraform.io/hashicorp/random&quot;] (close)</text>
</g>
<!-- [root] provider[&quot;registry.terraform.io/hashicorp/random&quot;] (close)&#45;&gt;[root] random_pet.lambda_bucket_name (expand) -->
<g id="edge55" class="edge">
<title>[root] provider[&quot;registry.terraform.io/hashicorp/random&quot;] (close)&#45;&gt;[root] random_pet.lambda_bucket_name (expand)</title>
<path fill="none" stroke="black" d="M250.58,-503.63C256.71,-476.99 267.33,-424.36 267.33,-379 267.33,-379 267.33,-379 267.33,-233 267.33,-169.39 335.32,-131.74 392.21,-111.37"/>
<polygon fill="black" stroke="black" points="393.64,-114.57 401.96,-108 391.36,-107.96 393.64,-114.57"/>
</g>
<!-- [root] root -->
<g id="node37" class="node">
<title>[root] root</title>
<ellipse fill="none" stroke="black" cx="782.33" cy="-594" rx="48.19" ry="18"/>
<text text-anchor="middle" x="782.33" y="-590.3" font-family="Times,serif" font-size="14.00">[root] root</text>
</g>
<!-- [root] root&#45;&gt;[root] meta.count&#45;boundary (EachMode fixup) -->
<g id="edge57" class="edge">
<title>[root] root&#45;&gt;[root] meta.count&#45;boundary (EachMode fixup)</title>
<path fill="none" stroke="black" d="M829.06,-589.5C962.93,-579.49 1352.05,-550.39 1568.55,-534.2"/>
<polygon fill="black" stroke="black" points="1569.02,-537.68 1578.73,-533.44 1568.49,-530.7 1569.02,-537.68"/>
</g>
<!-- [root] root&#45;&gt;[root] provider[&quot;registry.terraform.io/hashicorp/archive&quot;] (close) -->
<g id="edge58" class="edge">
<title>[root] root&#45;&gt;[root] provider[&quot;registry.terraform.io/hashicorp/archive&quot;] (close)</title>
<path fill="none" stroke="black" d="M752.35,-579.66C697.85,-553.54 584.08,-489.88 539.33,-396 529.32,-375.01 540.74,-350.34 553.14,-332.31"/>
<polygon fill="black" stroke="black" points="556.12,-334.16 559.22,-324.03 550.48,-330.02 556.12,-334.16"/>
</g>
<!-- [root] root&#45;&gt;[root] provider[&quot;registry.terraform.io/hashicorp/aws&quot;] (close) -->
<g id="edge59" class="edge">
<title>[root] root&#45;&gt;[root] provider[&quot;registry.terraform.io/hashicorp/aws&quot;] (close)</title>
<path fill="none" stroke="black" d="M820.43,-582.82C860.26,-572.18 923.7,-555.23 972.9,-542.08"/>
<polygon fill="black" stroke="black" points="974.1,-545.39 982.85,-539.42 972.29,-538.62 974.1,-545.39"/>
</g>
<!-- [root] root&#45;&gt;[root] provider[&quot;registry.terraform.io/hashicorp/random&quot;] (close) -->
<g id="edge60" class="edge">
<title>[root] root&#45;&gt;[root] provider[&quot;registry.terraform.io/hashicorp/random&quot;] (close)</title>
<path fill="none" stroke="black" d="M737.55,-587.15C657.79,-576.74 488.48,-554.62 371.09,-539.29"/>
<polygon fill="black" stroke="black" points="371.34,-535.8 360.97,-537.97 370.43,-542.74 371.34,-535.8"/>
</g>
</g>
</svg>
